<svg width="150" height="21" viewBox="0 0 150 21" fill="none" xmlns="http://www.w3.org/2000/svg">
<path d="M0.38 0.399999H5.98C8.612 0.399999 10.5253 0.941332 11.72 2.024C12.9333 3.10667 13.54 4.75867 13.54 6.98C13.54 9.20133 12.9333 10.8533 11.72 11.936C10.5253 13.0187 8.612 13.56 5.98 13.56H4.3V20H0.38V0.399999ZM5.98 11.04C7.268 11.04 8.192 10.732 8.752 10.116C9.33067 9.48133 9.62 8.436 9.62 6.98C9.62 5.524 9.33067 4.488 8.752 3.872C8.192 3.23733 7.268 2.92 5.98 2.92H4.3V11.04H5.98ZM18.9923 20V0.399999H22.9123V17.48H30.4723V20H18.9923ZM33.1291 20L38.8691 0.399999H43.3491L49.0891 20H45.1691L43.9091 15.52H38.3091L37.0491 20H33.1291ZM43.2091 13L41.5291 7.12C41.4731 6.91467 41.4171 6.672 41.3611 6.392C41.3051 6.09333 41.2677 5.87867 41.2491 5.748L41.1651 5.02H41.0531L40.9411 5.748C40.9037 5.916 40.8571 6.14933 40.8011 6.448C40.7637 6.728 40.7264 6.952 40.6891 7.12L39.0091 13H43.2091ZM53.8381 0.399999H58.0381L62.9381 12.16L63.4421 13.392L63.6661 13.98H63.7781L63.6941 13.392C63.6568 13.168 63.6381 12.7573 63.6381 12.16V0.399999H67.5581V20H63.3581L58.4581 8.24L57.9541 7.008L57.7301 6.42H57.6181L57.6741 7.008C57.7301 7.736 57.7581 8.14667 57.7581 8.24V20H53.8381V0.399999ZM77.0825 20V2.92H72.1825V0.399999H85.9025V2.92H81.0025V20H77.0825ZM87.4348 20L93.1748 0.399999H97.6548L103.395 20H99.4748L98.2148 15.52H92.6148L91.3548 20H87.4348ZM97.5148 13L95.8348 7.12C95.7788 6.91467 95.7228 6.672 95.6668 6.392C95.6108 6.09333 95.5735 5.87867 95.5548 5.748L95.4708 5.02H95.3588L95.2468 5.748C95.2095 5.916 95.1628 6.14933 95.1068 6.448C95.0695 6.728 95.0322 6.952 94.9948 7.12L93.3148 13H97.5148ZM112.764 20.28C110.953 20.28 109.441 20.028 108.228 19.524C107.593 19.2813 107.099 19.02 106.744 18.74L108.004 16.5H108.284C108.527 16.7053 108.863 16.92 109.292 17.144C110.188 17.5547 111.252 17.76 112.484 17.76C113.585 17.76 114.416 17.508 114.976 17.004C115.555 16.5 115.844 15.8187 115.844 14.96C115.844 14.4187 115.685 13.952 115.368 13.56C115.051 13.1493 114.649 12.804 114.164 12.524C113.679 12.2253 113.016 11.88 112.176 11.488C111.056 10.9653 110.141 10.48 109.432 10.032C108.723 9.56533 108.116 8.95867 107.612 8.212C107.127 7.46533 106.884 6.54133 106.884 5.44C106.884 4.45067 107.145 3.55467 107.668 2.752C108.191 1.93067 108.947 1.28667 109.936 0.819998C110.925 0.353332 112.101 0.119999 113.464 0.119999C115.107 0.119999 116.535 0.381332 117.748 0.903999C118.289 1.10933 118.775 1.36133 119.204 1.66L117.944 3.9H117.664C117.459 3.732 117.141 3.52667 116.712 3.284C115.816 2.85467 114.827 2.64 113.744 2.64C112.923 2.64 112.223 2.90133 111.644 3.424C111.084 3.928 110.804 4.50667 110.804 5.16C110.804 5.70133 110.963 6.17733 111.28 6.588C111.597 6.98 111.999 7.32533 112.484 7.624C112.969 7.904 113.632 8.24 114.472 8.632C115.592 9.15467 116.507 9.64933 117.216 10.116C117.925 10.564 118.523 11.1613 119.008 11.908C119.512 12.6547 119.764 13.5787 119.764 14.68C119.764 15.7627 119.493 16.7333 118.952 17.592C118.429 18.432 117.636 19.0947 116.572 19.58C115.527 20.0467 114.257 20.28 112.764 20.28ZM125.088 20V0.399999H129.008V20H125.088ZM133.756 20L139.496 0.399999H143.976L149.716 20H145.796L144.536 15.52H138.936L137.676 20H133.756ZM143.836 13L142.156 7.12C142.1 6.91467 142.044 6.672 141.988 6.392C141.932 6.09333 141.895 5.87867 141.876 5.748L141.792 5.02H141.68L141.568 5.748C141.531 5.916 141.484 6.14933 141.428 6.448C141.391 6.728 141.354 6.952 141.316 7.12L139.636 13H143.836Z" fill="black"/>
</svg>
